<svg width="18" height="18" viewBox="0 0 18 18" fill="none" xmlns="http://www.w3.org/2000/svg">
<path d="M11.2379 8.64844L4.31982 7.42969V16.4353C4.31991 16.5331 4.33926 16.63 4.37677 16.7204C4.41429 16.8107 4.46923 16.8928 4.53847 16.9619C4.60771 17.031 4.68988 17.0859 4.7803 17.1232C4.87072 17.1606 4.96761 17.1798 5.06545 17.1797H17.0029C17.1009 17.1799 17.1979 17.1609 17.2885 17.1236C17.379 17.0863 17.4614 17.0315 17.5307 16.9624C17.6001 16.8932 17.6552 16.8111 17.6928 16.7207C17.7304 16.6302 17.7497 16.5333 17.7498 16.4353V13.1172L11.2379 8.64844Z" fill="#185C37"/>
<path d="M11.2379 0.929688H5.06545C4.96761 0.929606 4.87072 0.948794 4.7803 0.986158C4.68988 1.02352 4.60771 1.07833 4.53847 1.14745C4.46923 1.21657 4.41429 1.29865 4.37677 1.38901C4.33926 1.47937 4.31991 1.57623 4.31982 1.67406V4.99219L11.2379 9.05469L14.9011 10.2734L17.7498 9.05469V4.99219L11.2379 0.929688Z" fill="#21A366"/>
<path d="M4.31982 4.99219H11.2379V9.05469H4.31982V4.99219Z" fill="#107C41"/>
<path opacity="0.1" d="M9.27107 4.17969H4.31982V14.3359H9.27107C9.46837 14.335 9.65732 14.2563 9.79701 14.1169C9.93669 13.9776 10.0158 13.7889 10.0173 13.5916V4.92406C10.0158 4.72677 9.93669 4.53801 9.79701 4.39868C9.65732 4.25935 9.46837 4.18067 9.27107 4.17969Z" fill="#333742"/>
<path opacity="0.2" d="M8.8642 4.58594H4.31982V14.7422H8.8642C9.06149 14.7412 9.25045 14.6625 9.39013 14.5232C9.52982 14.3839 9.60897 14.1951 9.61045 13.9978V5.33031C9.60897 5.13302 9.52982 4.94426 9.39013 4.80493C9.25045 4.6656 9.06149 4.58692 8.8642 4.58594Z" fill="#333742"/>
<path opacity="0.2" d="M8.8642 4.58594H4.31982V13.9297H8.8642C9.06149 13.9287 9.25045 13.85 9.39013 13.7107C9.52982 13.5714 9.60897 13.3826 9.61045 13.1853V5.33031C9.60897 5.13302 9.52982 4.94426 9.39013 4.80493C9.25045 4.6656 9.06149 4.58692 8.8642 4.58594Z" fill="#333742"/>
<path opacity="0.2" d="M8.45732 4.58594H4.31982V13.9297H8.45732C8.65462 13.9287 8.84358 13.85 8.98326 13.7107C9.12294 13.5714 9.2021 13.3826 9.20357 13.1853V5.33031C9.2021 5.13302 9.12294 4.94426 8.98326 4.80493C8.84358 4.6656 8.65462 4.58692 8.45732 4.58594Z" fill="#333742"/>
<path d="M0.99625 4.58594H8.4575C8.65514 4.58577 8.84477 4.66408 8.9847 4.80366C9.12463 4.94324 9.20342 5.13267 9.20375 5.33031V12.7791C9.20342 12.9767 9.12463 13.1661 8.9847 13.3057C8.84477 13.4453 8.65514 13.5236 8.4575 13.5234H0.99625C0.898363 13.5236 0.801403 13.5045 0.710911 13.4671C0.62042 13.4298 0.538172 13.375 0.468868 13.3059C0.399564 13.2368 0.344563 13.1547 0.307009 13.0643C0.269454 12.9739 0.250082 12.877 0.25 12.7791V5.33031C0.250082 5.23243 0.269454 5.13551 0.307009 5.04512C0.344563 4.95472 0.399564 4.87261 0.468868 4.80348C0.538172 4.73435 0.62042 4.67956 0.710911 4.64223C0.801403 4.6049 0.898363 4.58577 0.99625 4.58594Z" fill="url(#paint0_linear_5301_20196)"/>
<path d="M2.5625 11.4741L4.13188 9.04656L2.69437 6.63281H3.84875L4.63312 8.17844C4.70562 8.32469 4.75813 8.43344 4.78188 8.50594H4.7925C4.84375 8.38844 4.89812 8.27531 4.955 8.16469L5.79375 6.63531H6.85625L5.38188 9.03531L6.89375 11.4759H5.76313L4.85688 9.78156C4.8148 9.70872 4.77904 9.63239 4.75 9.55344H4.735C4.70857 9.63037 4.67334 9.70398 4.63 9.77281L3.69688 11.4741H2.5625Z" fill="white"/>
<path d="M17.0039 0.929689H11.2383V4.99219H17.7502V1.67406C17.7501 1.57618 17.7307 1.47926 17.6931 1.38887C17.6556 1.29847 17.6006 1.21636 17.5313 1.14723C17.462 1.0781 17.3797 1.02331 17.2892 0.985979C17.1988 0.948652 17.1018 0.929524 17.0039 0.929689Z" fill="#33C481"/>
<path d="M11.2383 9.05469H17.7502V13.1172H11.2383V9.05469Z" fill="#107C41"/>
<defs>
<linearGradient id="paint0_linear_5301_20196" x1="1.80875" y1="4.00094" x2="7.645" y2="14.1084" gradientUnits="userSpaceOnUse">
<stop stop-color="#18884F"/>
<stop offset="0.5" stop-color="#117E43"/>
<stop offset="1" stop-color="#0B6631"/>
</linearGradient>
</defs>
</svg>
