<svg width="16" height="16" viewBox="0 0 16 16" fill="none" xmlns="http://www.w3.org/2000/svg">
<path d="M12.2167 0.74707L15.1146 3.7679V15.2554H4.28906V15.2929H15.1516V3.80592L12.2167 0.74707Z" fill="#909090"/>
<path d="M12.1786 0.708008H4.25V15.2538H15.1125V3.76686L12.1781 0.708008" fill="#F4F4F4"/>
<path d="M4.17187 1.48926H0.84375V5.04499H11.3125V1.48926H4.17187Z" fill="#7A7B7C"/>
<path d="M11.3669 4.98216H0.910156V1.42383H11.3669V4.98216Z" fill="#DD2025"/>
<path d="M4.37995 2.03132H3.69922V4.53132H4.23464V3.68809L4.35286 3.69487C4.46775 3.69289 4.58155 3.67231 4.68984 3.63393C4.78479 3.60127 4.87214 3.54971 4.94661 3.48237C5.0224 3.41821 5.08214 3.33724 5.12109 3.24591C5.17333 3.09408 5.19199 2.93273 5.17578 2.77299C5.17253 2.65888 5.15252 2.54587 5.11641 2.43757C5.08353 2.3594 5.03473 2.28893 4.97313 2.23064C4.91153 2.17236 4.83847 2.12754 4.75859 2.09903C4.68954 2.07403 4.61818 2.05589 4.54557 2.04487C4.49059 2.03638 4.43506 2.03186 4.37943 2.03132M4.28099 3.22612H4.23464V2.45528H4.33516C4.37952 2.45208 4.42404 2.45889 4.46542 2.47521C4.50679 2.49153 4.54398 2.51693 4.57422 2.54955C4.63688 2.63341 4.67036 2.73549 4.66953 2.84018C4.66953 2.9683 4.66953 3.08445 4.55391 3.16622C4.47061 3.21203 4.37579 3.23266 4.28099 3.22559M6.19297 2.02455C6.13516 2.02455 6.07891 2.02872 6.03932 2.03028L5.91536 2.03341H5.50911V4.53341H5.98724C6.16996 4.53842 6.35188 4.50745 6.52266 4.44226C6.66011 4.38774 6.78183 4.29985 6.87682 4.18653C6.9692 4.07219 7.0355 3.93905 7.07109 3.79643C7.11201 3.6349 7.13197 3.46878 7.13047 3.30216C7.14057 3.10536 7.12534 2.90809 7.08516 2.71518C7.04702 2.57318 6.97561 2.44231 6.87682 2.33341C6.79932 2.24547 6.70445 2.17454 6.59818 2.12507C6.50692 2.08284 6.41092 2.05172 6.31224 2.03237C6.273 2.02588 6.23326 2.02292 6.19349 2.02351M6.0987 4.07403H6.04661V2.4782H6.05339C6.16076 2.46584 6.2694 2.48522 6.36589 2.53393C6.43654 2.59035 6.49412 2.66143 6.53464 2.74226C6.57836 2.82733 6.60357 2.9207 6.60859 3.01622C6.61328 3.1308 6.60859 3.22455 6.60859 3.30216C6.61071 3.39155 6.60496 3.48096 6.59141 3.56934C6.57535 3.66009 6.54568 3.74789 6.50339 3.82976C6.45552 3.90588 6.39084 3.97003 6.31432 4.01726C6.25006 4.05882 6.17397 4.07821 6.09766 4.07247M8.74349 2.03341H7.47786V4.53341H8.01328V3.54174H8.69036V3.07716H8.01328V2.49799H8.74245V2.03341" fill="#464648"/>
<path d="M11.0107 10.2159C11.0107 10.2159 12.6711 9.91484 12.6711 10.482C12.6711 11.0492 11.6425 10.8185 11.0107 10.2159ZM9.78309 10.2591C9.51928 10.3174 9.2622 10.4027 9.0159 10.5138L9.22424 10.045C9.43257 9.57629 9.64872 8.93723 9.64872 8.93723C9.89732 9.35563 10.1866 9.74851 10.5123 10.1101C10.2666 10.1468 10.0232 10.1968 9.78309 10.2601V10.2591ZM9.1258 6.87369C9.1258 6.37942 9.2857 6.24452 9.41017 6.24452C9.53465 6.24452 9.67476 6.30442 9.67945 6.73358C9.63889 7.16513 9.54853 7.59053 9.41017 8.00129C9.22065 7.65642 9.12257 7.26876 9.12528 6.87525L9.1258 6.87369ZM6.70445 12.3508C6.19507 12.0461 7.77268 11.1081 8.05861 11.0779C8.05705 11.0784 7.23778 12.6695 6.70445 12.3508ZM13.156 10.5492C13.1508 10.4971 13.1039 9.92056 12.0779 9.94504C11.6502 9.93815 11.2227 9.9683 10.8003 10.0351C10.391 9.62286 10.0386 9.15782 9.75236 8.65233C9.93271 8.1312 10.0419 7.5881 10.0768 7.03775C10.0617 6.41275 9.91226 6.05442 9.43309 6.05963C8.95392 6.06483 8.88413 6.48411 8.94715 7.10806C9.00889 7.52736 9.12533 7.93675 9.29351 8.32577C9.29351 8.32577 9.07215 9.01483 8.77945 9.70025C8.48674 10.3857 8.28674 10.745 8.28674 10.745C7.77774 10.9107 7.29858 11.1569 6.86747 11.4742C6.4383 11.8737 6.26382 12.1805 6.48986 12.4872C6.68465 12.7518 7.36642 12.8117 7.9758 12.0133C8.29958 11.6009 8.59538 11.1673 8.86122 10.7154C8.86122 10.7154 9.79038 10.4607 10.0794 10.3909C10.3685 10.3211 10.718 10.2659 10.718 10.2659C10.718 10.2659 11.5664 11.1195 12.3847 11.0893C13.2029 11.0591 13.1633 10.6003 13.1581 10.5503" fill="#DD2025"/>
<path d="M12.1406 0.74707V3.80592H15.0745L12.1406 0.74707Z" fill="#909090"/>
<path d="M12.1797 0.708008V3.76686H15.1135L12.1797 0.708008Z" fill="#F4F4F4"/>
<path d="M4.34089 1.98543H3.66016V4.48543H4.19766V3.64272L4.31641 3.64949C4.43129 3.64751 4.54509 3.62693 4.65339 3.58855C4.74833 3.55588 4.83567 3.50432 4.91016 3.43699C4.98537 3.37266 5.04457 3.2917 5.08307 3.20053C5.13531 3.04871 5.15397 2.88735 5.13776 2.72761C5.13451 2.6135 5.1145 2.50049 5.07839 2.3922C5.04551 2.31402 4.99671 2.24355 4.93511 2.18527C4.87351 2.12698 4.80045 2.08216 4.72057 2.05365C4.6512 2.02841 4.57949 2.01009 4.50651 1.99897C4.45152 1.99048 4.396 1.98596 4.34036 1.98543M4.24193 3.18022H4.19557V2.40938H4.29661C4.34098 2.40618 4.3855 2.413 4.42687 2.42931C4.46825 2.44563 4.50544 2.47104 4.53568 2.50365C4.59834 2.58752 4.63182 2.68959 4.63099 2.79428C4.63099 2.9224 4.63099 3.03855 4.51536 3.12032C4.43207 3.16614 4.33725 3.18676 4.24245 3.1797M6.15391 1.97865C6.09609 1.97865 6.03984 1.98282 6.00026 1.98438L5.87786 1.98751H5.47161V4.48751H5.94974C6.13246 4.49252 6.31438 4.46155 6.48516 4.39636C6.62261 4.34184 6.74433 4.25396 6.83932 4.14063C6.9317 4.02629 6.998 3.89315 7.03359 3.75053C7.07451 3.589 7.09447 3.42288 7.09297 3.25626C7.10307 3.05947 7.08784 2.86219 7.04766 2.66928C7.00952 2.52728 6.93811 2.39641 6.83932 2.28751C6.76182 2.19957 6.66695 2.12864 6.56068 2.07918C6.46942 2.03694 6.37342 2.00582 6.27474 1.98647C6.2355 1.97998 6.19576 1.97702 6.15599 1.97761M6.0612 4.02813H6.00911V2.4323H6.01589C6.12326 2.41995 6.2319 2.43932 6.32839 2.48803C6.39904 2.54445 6.45662 2.61553 6.49714 2.69636C6.54086 2.78143 6.56607 2.8748 6.57109 2.97032C6.57578 3.0849 6.57109 3.17865 6.57109 3.25626C6.57321 3.34565 6.56746 3.43506 6.55391 3.52345C6.53785 3.61419 6.50818 3.70199 6.46589 3.78386C6.41802 3.85999 6.35334 3.92413 6.27682 3.97136C6.21256 4.01292 6.13647 4.03231 6.06016 4.02657M8.70443 1.98751H7.4388V4.48751H7.97422V3.49584H8.6513V3.03126H7.97422V2.45209H8.70338V1.98751" fill="white"/>
</svg>
