<svg width="11" height="14" viewBox="0 0 11 14" fill="none" xmlns="http://www.w3.org/2000/svg">
<path d="M6.66667 0H1.33333C0.979711 0 0.640573 0.140476 0.390524 0.390524C0.140476 0.640573 0 0.979711 0 1.33333V12C0 12.3536 0.140476 12.6928 0.390524 12.9428C0.640573 13.1929 0.979711 13.3333 1.33333 13.3333H9.33333C9.68695 13.3333 10.0261 13.1929 10.2761 12.9428C10.5262 12.6928 10.6667 12.3536 10.6667 12V4L6.66667 0ZM3.99867 8.512H3.26333V10.6947H2.652V8.512H1.92867V8H3.99867V8.512ZM5.81533 10.6947L5.572 10.2073C5.472 10.0193 5.408 9.87933 5.33267 9.72333H5.324C5.26867 9.87867 5.20067 10.0187 5.116 10.2073L4.89267 10.6947H4.196L4.97667 9.33133L4.224 8H4.924L5.16 8.492C5.24067 8.65533 5.3 8.78733 5.364 8.93933H5.37267C5.43667 8.76733 5.48867 8.64733 5.55667 8.492L5.784 8H6.47933L5.72 9.31533L6.51867 10.6947H5.81533ZM8.738 8.512H8.002V10.6947H7.39067V8.512H6.66733V8H8.73733L8.738 8.512ZM6.66667 4.66667H6V1.33333L9.33333 4.66667H6.66667Z" fill="#1976D2"/>
</svg>