<svg width="60" height="60" viewBox="0 0 60 60" fill="none" xmlns="http://www.w3.org/2000/svg">
<circle cx="30" cy="30" r="30" fill="#FFF1F1"/>
<circle cx="30" cy="30.0002" r="22.8" fill="#FFDBD8"/>
<circle cx="30" cy="30.0001" r="14.4" fill="#F45100"/>
<path fill-rule="evenodd" clip-rule="evenodd" d="M20.75 24.25C20.75 23.7668 21.1418 23.375 21.625 23.375H37.375C37.8582 23.375 38.25 23.7668 38.25 24.25C38.25 24.7332 37.8582 25.125 37.375 25.125H21.625C21.1418 25.125 20.75 24.7332 20.75 24.25Z" fill="white"/>
<path fill-rule="evenodd" clip-rule="evenodd" d="M23.375 23.375C23.8582 23.375 24.25 23.7668 24.25 24.25V36.5C24.25 36.6529 24.3353 36.8791 24.5406 37.0844C24.7459 37.2897 24.9721 37.375 25.125 37.375H33.875C34.0279 37.375 34.2541 37.2897 34.4594 37.0844C34.6647 36.8791 34.75 36.6529 34.75 36.5V24.25C34.75 23.7668 35.1418 23.375 35.625 23.375C36.1082 23.375 36.5 23.7668 36.5 24.25V36.5C36.5 37.2221 36.1478 37.8709 35.6968 38.3218C35.2459 38.7728 34.5971 39.125 33.875 39.125H25.125C24.4029 39.125 23.7541 38.7728 23.3032 38.3218C22.8522 37.8709 22.5 37.2221 22.5 36.5V24.25C22.5 23.7668 22.8918 23.375 23.375 23.375Z" fill="white"/>
<path fill-rule="evenodd" clip-rule="evenodd" d="M27.1656 21.9156C26.9603 22.1209 26.875 22.3471 26.875 22.5V24.25C26.875 24.7332 26.4832 25.125 26 25.125C25.5168 25.125 25.125 24.7332 25.125 24.25V22.5C25.125 21.7779 25.4772 21.1291 25.9282 20.6782C26.3791 20.2272 27.0279 19.875 27.75 19.875H31.25C31.9721 19.875 32.6209 20.2272 33.0718 20.6782C33.5228 21.1291 33.875 21.7779 33.875 22.5V24.25C33.875 24.7332 33.4832 25.125 33 25.125C32.5168 25.125 32.125 24.7332 32.125 24.25V22.5C32.125 22.3471 32.0397 22.1209 31.8344 21.9156C31.6291 21.7103 31.4029 21.625 31.25 21.625H27.75C27.5971 21.625 27.3709 21.7103 27.1656 21.9156Z" fill="white"/>
<path fill-rule="evenodd" clip-rule="evenodd" d="M27.75 27.75C28.2332 27.75 28.625 28.1418 28.625 28.625V33.875C28.625 34.3582 28.2332 34.75 27.75 34.75C27.2668 34.75 26.875 34.3582 26.875 33.875V28.625C26.875 28.1418 27.2668 27.75 27.75 27.75Z" fill="white"/>
<path fill-rule="evenodd" clip-rule="evenodd" d="M31.25 27.75C31.7332 27.75 32.125 28.1418 32.125 28.625V33.875C32.125 34.3582 31.7332 34.75 31.25 34.75C30.7668 34.75 30.375 34.3582 30.375 33.875V28.625C30.375 28.1418 30.7668 27.75 31.25 27.75Z" fill="white"/>
</svg>
