<svg width="60" height="60" viewBox="0 0 60 60" fill="none" xmlns="http://www.w3.org/2000/svg">
<circle cx="30" cy="30" r="30" fill="#FFF1F1"/>
<circle cx="30" cy="30" r="22.8" fill="#FFDBD8"/>
<circle cx="30.0001" cy="30.0001" r="14.4" fill="#F45100"/>
<mask id="mask0_3700_8745" style="mask-type:alpha" maskUnits="userSpaceOnUse" x="18" y="18" width="24" height="24">
<rect x="18" y="18" width="24" height="24" fill="#D9D9D9"/>
</mask>
<g mask="url(#mask0_3700_8745)">
<path d="M28.6 34.6L35.65 27.55L34.25 26.15L28.6 31.8L25.75 28.95L24.35 30.35L28.6 34.6ZM30 40C28.6167 40 27.3167 39.7375 26.1 39.2125C24.8833 38.6875 23.825 37.975 22.925 37.075C22.025 36.175 21.3125 35.1167 20.7875 33.9C20.2625 32.6833 20 31.3833 20 30C20 28.6167 20.2625 27.3167 20.7875 26.1C21.3125 24.8833 22.025 23.825 22.925 22.925C23.825 22.025 24.8833 21.3125 26.1 20.7875C27.3167 20.2625 28.6167 20 30 20C31.3833 20 32.6833 20.2625 33.9 20.7875C35.1167 21.3125 36.175 22.025 37.075 22.925C37.975 23.825 38.6875 24.8833 39.2125 26.1C39.7375 27.3167 40 28.6167 40 30C40 31.3833 39.7375 32.6833 39.2125 33.9C38.6875 35.1167 37.975 36.175 37.075 37.075C36.175 37.975 35.1167 38.6875 33.9 39.2125C32.6833 39.7375 31.3833 40 30 40ZM30 38C32.2333 38 34.125 37.225 35.675 35.675C37.225 34.125 38 32.2333 38 30C38 27.7667 37.225 25.875 35.675 24.325C34.125 22.775 32.2333 22 30 22C27.7667 22 25.875 22.775 24.325 24.325C22.775 25.875 22 27.7667 22 30C22 32.2333 22.775 34.125 24.325 35.675C25.875 37.225 27.7667 38 30 38Z" fill="white"/>
</g>
</svg>
