<svg width="21" height="20" viewBox="0 0 21 20" fill="none" xmlns="http://www.w3.org/2000/svg">
<path d="M15.076 2.74661L17.974 5.76745V17.2549H7.14844V17.2924H18.0109V5.80547L15.076 2.74661Z" fill="#909090"/>
<path d="M15.038 2.70755H7.10938V17.2534H17.9719V5.76641L15.0375 2.70755" fill="#F4F4F4"/>
<path d="M7.02734 3.4888H3.69922V7.04453H14.168V3.4888H7.02734Z" fill="#7A7B7C"/>
<path d="M14.2224 6.98203H3.76562V3.4237H14.2224V6.98203Z" fill="#DD2025"/>
<path d="M7.23542 4.03054H6.55469V6.53054H7.0901V5.68731L7.20833 5.69408C7.32321 5.69211 7.43702 5.67153 7.54531 5.63315C7.64026 5.60049 7.72761 5.54893 7.80208 5.48158C7.87786 5.41743 7.93761 5.33646 7.97656 5.24513C8.0288 5.0933 8.04746 4.93195 8.03125 4.77221C8.028 4.6581 8.00799 4.54508 7.97187 4.43679C7.939 4.35862 7.8902 4.28815 7.8286 4.22986C7.767 4.17158 7.69393 4.12675 7.61406 4.09825C7.545 4.07325 7.47365 4.05511 7.40104 4.04408C7.34606 4.0356 7.29053 4.03107 7.2349 4.03054M7.13646 5.22533H7.0901V4.4545H7.19062C7.23499 4.4513 7.27951 4.45811 7.32088 4.47443C7.36226 4.49075 7.39945 4.51615 7.42969 4.54877C7.49235 4.63263 7.52583 4.73471 7.525 4.8394C7.525 4.96752 7.525 5.08367 7.40937 5.16544C7.32608 5.21125 7.23126 5.23188 7.13646 5.22481M9.04844 4.02377C8.99062 4.02377 8.93437 4.02794 8.89479 4.0295L8.77083 4.03263H8.36458V6.53263H8.84271C9.02543 6.53763 9.20735 6.50666 9.37813 6.44148C9.51558 6.38696 9.6373 6.29907 9.73229 6.18575C9.82467 6.0714 9.89097 5.93827 9.92656 5.79565C9.96748 5.63412 9.98744 5.468 9.98594 5.30138C9.99604 5.10458 9.98081 4.90731 9.94063 4.7144C9.90249 4.5724 9.83107 4.44153 9.73229 4.33263C9.65479 4.24469 9.55991 4.17376 9.45365 4.12429C9.36239 4.08206 9.26639 4.05094 9.16771 4.03158C9.12847 4.0251 9.08873 4.02214 9.04896 4.02273M8.95417 6.07325H8.90208V4.47742H8.90885C9.01623 4.46506 9.12487 4.48444 9.22135 4.53315C9.29201 4.58957 9.34959 4.66065 9.3901 4.74148C9.43383 4.82655 9.45904 4.91992 9.46406 5.01544C9.46875 5.13002 9.46406 5.22377 9.46406 5.30138C9.46618 5.39077 9.46043 5.48018 9.44688 5.56856C9.43082 5.65931 9.40115 5.7471 9.35885 5.82898C9.31098 5.9051 9.24631 5.96924 9.16979 6.01648C9.10553 6.05804 9.02944 6.07743 8.95313 6.07169M11.599 4.03263H10.3333V6.53263H10.8687V5.54096H11.5458V5.07638H10.8687V4.49721H11.5979V4.03263" fill="#464648"/>
<path d="M13.8662 12.2154C13.8662 12.2154 15.5266 11.9144 15.5266 12.4816C15.5266 13.0488 14.4979 12.818 13.8662 12.2154ZM12.6386 12.2586C12.3748 12.3169 12.1177 12.4023 11.8714 12.5133L12.0797 12.0446C12.288 11.5758 12.5042 10.9368 12.5042 10.9368C12.7528 11.3552 13.042 11.748 13.3677 12.1097C13.1221 12.1463 12.8787 12.1964 12.6386 12.2597V12.2586ZM11.9813 8.87323C11.9813 8.37896 12.1412 8.24407 12.2656 8.24407C12.3901 8.24407 12.5302 8.30396 12.5349 8.73313C12.4944 9.16467 12.404 9.59007 12.2656 10.0008C12.0761 9.65596 11.978 9.26831 11.9807 8.8748L11.9813 8.87323ZM9.55991 14.3503C9.05054 14.0456 10.6281 13.1076 10.9141 13.0774C10.9125 13.0779 10.0932 14.6691 9.55991 14.3503ZM16.0115 12.5488C16.0063 12.4967 15.9594 11.9201 14.9334 11.9446C14.5057 11.9377 14.0782 11.9678 13.6557 12.0347C13.2465 11.6224 12.8941 11.1574 12.6078 10.6519C12.7882 10.1307 12.8973 9.58764 12.9323 9.0373C12.9172 8.4123 12.7677 8.05396 12.2886 8.05917C11.8094 8.06438 11.7396 8.48365 11.8026 9.10761C11.8644 9.5269 11.9808 9.9363 12.149 10.3253C12.149 10.3253 11.9276 11.0144 11.6349 11.6998C11.3422 12.3852 11.1422 12.7446 11.1422 12.7446C10.6332 12.9103 10.154 13.1565 9.72294 13.4738C9.29377 13.8732 9.11929 14.18 9.34533 14.4868C9.54012 14.7514 10.2219 14.8113 10.8313 14.0128C11.155 13.6004 11.4508 13.1668 11.7167 12.7149C11.7167 12.7149 12.6459 12.4602 12.9349 12.3904C13.224 12.3206 13.5735 12.2654 13.5735 12.2654C13.5735 12.2654 14.4219 13.1191 15.2401 13.0889C16.0584 13.0586 16.0188 12.5998 16.0136 12.5498" fill="#DD2025"/>
<path d="M15 2.74661V5.80547H17.9339L15 2.74661Z" fill="#909090"/>
<path d="M15.0391 2.70755V5.76641H17.9729L15.0391 2.70755Z" fill="#F4F4F4"/>
<path d="M7.19635 3.98497H6.51562V6.48497H7.05312V5.64226L7.17188 5.64903C7.28676 5.64706 7.40056 5.62648 7.50885 5.58809C7.6038 5.55542 7.69114 5.50387 7.76562 5.43653C7.84084 5.3722 7.90004 5.29125 7.93854 5.20007C7.99078 5.04825 8.00944 4.8869 7.99323 4.72716C7.98998 4.61305 7.96997 4.50003 7.93385 4.39174C7.90098 4.31357 7.85218 4.24309 7.79058 4.18481C7.72898 4.12652 7.65591 4.0817 7.57604 4.0532C7.50667 4.02795 7.43496 4.00964 7.36198 3.99851C7.30699 3.99003 7.25147 3.9855 7.19583 3.98497M7.0974 5.17976H7.05104V4.40893H7.15208C7.19645 4.40573 7.24096 4.41254 7.28234 4.42886C7.32372 4.44517 7.36091 4.47058 7.39115 4.5032C7.45381 4.58706 7.48729 4.68914 7.48646 4.79382C7.48646 4.92195 7.48646 5.03809 7.37083 5.11987C7.28753 5.16568 7.19272 5.18631 7.09792 5.17924M9.00937 3.9782C8.95156 3.9782 8.89531 3.98237 8.85573 3.98393L8.73333 3.98705H8.32708V6.48705H8.80521C8.98793 6.49206 9.16985 6.46109 9.34062 6.39591C9.47808 6.34139 9.5998 6.2535 9.69479 6.14018C9.78717 6.02583 9.85347 5.8927 9.88906 5.75007C9.92998 5.58855 9.94994 5.42242 9.94844 5.2558C9.95854 5.05901 9.94331 4.86173 9.90312 4.66882C9.86499 4.52683 9.79357 4.39596 9.69479 4.28705C9.61729 4.19912 9.52241 4.12818 9.41615 4.07872C9.32489 4.03649 9.22889 4.00536 9.13021 3.98601C9.09097 3.97953 9.05123 3.97657 9.01146 3.97716M8.91667 6.02768H8.86458V4.43184H8.87135C8.97873 4.41949 9.08737 4.43886 9.18385 4.48757C9.25451 4.54399 9.31209 4.61507 9.3526 4.69591C9.39633 4.78098 9.42154 4.87435 9.42656 4.96987C9.43125 5.08445 9.42656 5.1782 9.42656 5.2558C9.42868 5.3452 9.42293 5.4346 9.40937 5.52299C9.39332 5.61373 9.36365 5.70153 9.32135 5.78341C9.27348 5.85953 9.20881 5.92367 9.13229 5.97091C9.06803 6.01247 8.99194 6.03186 8.91562 6.02612M11.5599 3.98705H10.2943V6.48705H10.8297V5.49539H11.5068V5.0308H10.8297V4.45164H11.5589V3.98705" fill="white"/>
</svg>
