<svg width="180" height="180" viewBox="0 0 180 180" fill="none" xmlns="http://www.w3.org/2000/svg">
<ellipse opacity="0.1" cx="90" cy="174.6" rx="90" ry="5.4" fill="#762344"/>
<path fill-rule="evenodd" clip-rule="evenodd" d="M46.5278 23.6926C47.2733 23.7022 47.8699 24.3143 47.8603 25.0598C47.8508 25.8054 47.2386 26.402 46.4931 26.3924L46.0431 26.3866C36.1028 26.2591 27.9412 34.2139 27.8137 44.1542L27.7605 48.2938C27.7516 48.9896 27.1803 49.5465 26.4845 49.5375C25.7886 49.5286 25.2318 48.9573 25.2407 48.2615L25.2939 44.1218C25.4472 32.1743 34.1685 23.534 46.0778 23.6868L46.5278 23.6926ZM51.46 25.106C51.4951 22.3724 49.3075 20.128 46.574 20.0929L46.124 20.0871C32.1885 19.9083 21.8725 30.1784 21.6942 44.0756L21.641 48.2153C21.6066 50.8992 23.7544 53.1028 26.4383 53.1373C29.1222 53.1717 31.3258 51.0239 31.3602 48.34L31.4134 44.2004C31.5154 36.2481 38.0447 29.8843 45.997 29.9863L46.4469 29.9921C49.1805 30.0272 51.4249 27.8396 51.46 25.106ZM42.9427 120.076L42.9431 120.078L42.9435 120.083C42.9426 120.078 42.9425 120.076 42.9427 120.076ZM42.9455 120.091C42.9602 120.041 43.0827 119.657 44.0779 119.022C45.1188 118.358 46.7378 117.673 48.9292 117.022C50.1674 117.418 51.504 117.788 52.9235 118.13C60.6363 119.986 71.1986 121.117 82.8008 121.117C90.737 121.117 98.1777 120.588 104.549 119.663C104.452 120.562 104.402 121.476 104.402 122.401C104.402 123.453 104.466 124.49 104.592 125.507C98.2902 126.308 90.821 126.774 82.8008 126.774C71.3806 126.774 61.0924 125.83 53.704 124.325C49.9951 123.569 47.1113 122.691 45.1983 121.769C44.2377 121.307 43.6167 120.878 43.2599 120.523C43.0143 120.278 42.9575 120.136 42.9455 120.091ZM122.658 98.1702C114.171 100.598 107.515 107.364 105.244 115.917C98.8147 116.926 91.1044 117.517 82.8008 117.517C71.3964 117.517 61.1302 116.402 53.7661 114.63C50.0698 113.74 47.2049 112.707 45.3077 111.628C43.2698 110.468 42.9437 109.61 42.9437 109.288V87.6315C43.1681 87.753 43.3994 87.8707 43.6362 87.9848C45.9392 89.0939 49.156 90.044 52.9855 90.8241C60.674 92.3903 71.2144 93.3457 82.8008 93.3457C94.3872 93.3457 104.928 92.3903 112.616 90.8241C116.446 90.044 119.662 89.0939 121.965 87.9848C122.202 87.8707 122.433 87.753 122.658 87.6315V98.1702ZM126.258 83.06V97.4213C127.352 97.2762 128.468 97.2014 129.602 97.2014C143.52 97.2014 154.802 108.484 154.802 122.401C154.802 136.319 143.52 147.601 129.602 147.601C128.424 147.601 127.266 147.521 126.131 147.364C125.658 149.282 123.929 150.729 122.075 151.785C119.756 153.104 116.52 154.233 112.678 155.158C104.965 157.015 94.403 158.145 82.8008 158.145C71.1986 158.145 60.6363 157.015 52.9235 155.158C49.0812 154.233 45.8456 153.104 43.5269 151.785C41.3488 150.545 39.3437 148.764 39.3437 146.317V120.088V120.088C39.3437 118.211 40.7511 116.874 42.1417 115.987C42.6817 115.642 43.2965 115.315 43.9766 115.004C43.8231 114.922 43.6732 114.84 43.5269 114.756C41.3488 113.517 39.3437 111.736 39.3437 109.288V83.06V83.0598C39.3438 81.2213 40.6962 79.9016 42.0443 79.0217C42.6089 78.6531 43.2579 78.3044 43.9795 77.9743C43.8256 77.8923 43.6753 77.8096 43.5287 77.7262C41.3506 76.4865 39.3454 74.7057 39.3454 72.2582V46.0297C39.3454 45.6859 39.4418 45.3647 39.6089 45.0915C40.0247 40.056 59.2037 36.0014 82.8021 36.0014C106.397 36.0014 125.575 40.0549 125.995 45.0896C126.163 45.3632 126.26 45.6851 126.26 46.0297V72.2582C126.26 74.7057 124.255 76.4865 122.076 77.7262C121.929 77.8099 121.778 77.8929 121.624 77.9751C122.188 78.2331 122.705 78.5016 123.172 78.7809C124.688 79.6887 126.258 81.0741 126.258 83.0598V83.06ZM105.288 129.048C107.593 137.501 114.19 144.185 122.592 146.614C122.424 147.041 121.872 147.758 120.294 148.656C118.397 149.736 115.532 150.768 111.836 151.658C104.471 153.431 94.2052 154.545 82.8008 154.545C71.3964 154.545 61.1302 153.431 53.7661 151.658C50.0698 150.768 47.2049 149.736 45.3077 148.656C43.2698 147.496 42.9437 146.638 42.9437 146.317V124.66C43.1681 124.781 43.3994 124.899 43.6362 125.013C45.9392 126.122 49.156 127.072 52.9855 127.852C60.674 129.418 71.2144 130.374 82.8008 130.374C91.0499 130.374 98.7612 129.89 105.288 129.048ZM42.9454 48.8356V72.2582C42.9454 72.5801 43.2716 73.4376 45.3094 74.5975C47.2067 75.6773 50.0716 76.7097 53.7678 77.5995C61.1319 79.3724 71.3981 80.4868 82.8026 80.4868C94.207 80.4868 104.473 79.3724 111.837 77.5995C113.612 77.1724 115.194 76.7124 116.57 76.2301L116.572 76.2236L116.582 76.2262C118.067 75.7049 119.312 75.1576 120.296 74.5975C122.334 73.4376 122.66 72.5801 122.66 72.2582V48.8351C116.131 52.1718 100.744 54.5156 82.8021 54.5156C64.861 54.5156 49.4744 52.1721 42.9454 48.8356ZM121.323 81.8696C120.268 81.2381 118.711 80.5993 116.67 79.9929C115.433 80.3891 114.098 80.7582 112.68 81.0995C104.967 82.9563 94.4047 84.0868 82.8026 84.0868C71.2004 84.0868 60.638 82.9563 52.9252 81.0995C51.4538 80.7453 50.0713 80.3612 48.7952 79.9479L48.8188 80.0266C46.6298 80.684 45.0279 81.3732 44.012 82.0363C43.0788 82.6455 42.96 83.0117 42.9455 83.0632C42.9574 83.1077 43.0142 83.25 43.2599 83.4945C43.6167 83.8497 44.2377 84.2787 45.1983 84.7413C47.1113 85.6626 49.9951 86.541 53.704 87.2965C61.0924 88.8016 71.3806 89.7457 82.8008 89.7457C94.221 89.7457 104.509 88.8016 111.898 87.2965C115.607 86.541 118.49 85.6626 120.403 84.7413C121.364 84.2787 121.985 83.8497 122.342 83.4945C122.587 83.25 122.644 83.1077 122.656 83.0632L122.656 83.0626C122.64 83.0122 122.503 82.5762 121.323 81.8696ZM122.659 83.0479C122.659 83.0479 122.659 83.0502 122.658 83.0548C122.658 83.0502 122.659 83.0479 122.659 83.0479ZM42.9435 83.0549C42.9426 83.0502 42.9425 83.0479 42.9427 83.0479C42.9429 83.0479 42.9433 83.0502 42.9435 83.0549ZM129.602 100.801C117.673 100.801 108.002 110.472 108.002 122.401C108.002 134.331 117.673 144.001 129.602 144.001C141.531 144.001 151.202 134.331 151.202 122.401C151.202 110.472 141.531 100.801 129.602 100.801ZM129.602 130.501C130.845 130.501 131.852 129.494 131.852 128.251C131.852 127.009 130.845 126.001 129.602 126.001C128.359 126.001 127.352 127.009 127.352 128.251C127.352 129.494 128.359 130.501 129.602 130.501ZM129.602 115.201C126.523 115.201 123.783 116.647 122.021 118.903C121.409 119.686 120.277 119.825 119.494 119.213C118.711 118.601 118.572 117.47 119.184 116.687C121.599 113.595 125.368 111.601 129.602 111.601C133.836 111.601 137.605 113.595 140.021 116.687C140.633 117.47 140.494 118.601 139.71 119.213C138.927 119.825 137.796 119.686 137.184 118.903C135.421 116.647 132.681 115.201 129.602 115.201ZM124.721 124.785C125.856 123.331 127.62 122.401 129.602 122.401C131.584 122.401 133.348 123.331 134.484 124.785C135.096 125.568 136.227 125.707 137.01 125.095C137.794 124.483 137.933 123.352 137.321 122.569C135.532 120.279 132.739 118.801 129.602 118.801C126.465 118.801 123.672 120.279 121.884 122.569C121.272 123.352 121.411 124.483 122.194 125.095C122.977 125.707 124.109 125.568 124.721 124.785Z" fill="#762344"/>
</svg>
