<svg width="180" height="181" viewBox="0 0 180 181" fill="none" xmlns="http://www.w3.org/2000/svg">
<ellipse opacity="0.1" cx="90" cy="174.85" rx="90" ry="5.4" fill="#762344"/>
<path fill-rule="evenodd" clip-rule="evenodd" d="M73.7996 31.0924C73.7996 28.4733 75.9228 26.3501 78.5419 26.3501H88.2975C90.9166 26.3501 93.0398 28.4733 93.0398 31.0924C93.0398 33.7114 90.9166 35.8346 88.2975 35.8346H78.5419C75.9228 35.8346 73.7996 33.7114 73.7996 31.0924ZM78.5419 29.9501C77.911 29.9501 77.3996 30.4615 77.3996 31.0924C77.3996 31.7232 77.911 32.2346 78.5419 32.2346H88.2975C88.9284 32.2346 89.4398 31.7232 89.4398 31.0924C89.4398 30.4615 88.9284 29.9501 88.2975 29.9501L78.5419 29.9501ZM35.9996 41.6501C28.0467 41.6501 21.5996 48.0972 21.5996 56.0501V126.25C21.5996 134.203 28.0467 140.65 35.9996 140.65H129.683C137.636 140.65 144.083 134.203 144.083 126.25V124.393C144.65 124.431 145.223 124.45 145.8 124.45C159.717 124.45 171 113.168 171 99.2501C171 85.3325 159.717 74.0501 145.8 74.0501C145.223 74.0501 144.65 74.0695 144.083 74.1077V56.0501C144.083 48.0972 137.636 41.6501 129.683 41.6501H35.9996ZM140.483 74.612V67.2667H25.1996V126.25C25.1996 132.215 30.0349 137.05 35.9996 137.05H129.683C135.647 137.05 140.483 132.215 140.483 126.25V123.888C129.118 121.447 120.6 111.344 120.6 99.2501C120.6 87.1566 129.118 77.0527 140.483 74.612ZM140.483 56.0501V63.6667H25.1996V56.0501C25.1996 50.0854 30.0349 45.2501 35.9996 45.2501H129.683C135.647 45.2501 140.483 50.0854 140.483 56.0501ZM124.2 99.2501C124.2 87.3207 133.87 77.6501 145.8 77.6501C157.729 77.6501 167.4 87.3207 167.4 99.2501C167.4 111.179 157.729 120.85 145.8 120.85C133.87 120.85 124.2 111.179 124.2 99.2501ZM141.3 87.5501C141.3 85.0648 143.314 83.0501 145.8 83.0501C148.285 83.0501 150.3 85.0648 150.3 87.5501V98.3501C150.3 100.835 148.285 102.85 145.8 102.85C143.314 102.85 141.3 100.835 141.3 98.3501V87.5501ZM145.8 86.6501C145.303 86.6501 144.9 87.053 144.9 87.5501V98.3501C144.9 98.8472 145.303 99.2501 145.8 99.2501C146.297 99.2501 146.7 98.8472 146.7 98.3501V87.5501C146.7 87.053 146.297 86.6501 145.8 86.6501ZM145.8 115.45C143.314 115.45 141.3 113.435 141.3 110.95C141.3 108.465 143.314 106.45 145.8 106.45C148.285 106.45 150.3 108.465 150.3 110.95C150.3 113.435 148.285 115.45 145.8 115.45ZM144.9 110.95C144.9 111.447 145.303 111.85 145.8 111.85C146.297 111.85 146.7 111.447 146.7 110.95C146.7 110.453 146.297 110.05 145.8 110.05C145.303 110.05 144.9 110.453 144.9 110.95ZM38.6996 59.6501C41.1849 59.6501 43.1996 57.6354 43.1996 55.1501C43.1996 52.6648 41.1849 50.6501 38.6996 50.6501C36.2143 50.6501 34.1996 52.6648 34.1996 55.1501C34.1996 57.6354 36.2143 59.6501 38.6996 59.6501ZM55.7996 55.1501C55.7996 57.6354 53.7849 59.6501 51.2996 59.6501C48.8143 59.6501 46.7996 57.6354 46.7996 55.1501C46.7996 52.6648 48.8143 50.6501 51.2996 50.6501C53.7849 50.6501 55.7996 52.6648 55.7996 55.1501ZM34.1996 85.7501C34.1996 83.2648 36.2143 81.2501 38.6996 81.2501H65.6996C68.1849 81.2501 70.1996 83.2648 70.1996 85.7501C70.1996 88.2354 68.1849 90.2501 65.6996 90.2501H38.6996C36.2143 90.2501 34.1996 88.2354 34.1996 85.7501ZM34.1996 100.15C34.1996 97.6648 36.2143 95.6501 38.6996 95.6501H92.6996C95.1849 95.6501 97.1996 97.6648 97.1996 100.15C97.1996 102.635 95.1849 104.65 92.6996 104.65H38.6996C36.2143 104.65 34.1996 102.635 34.1996 100.15ZM34.1996 114.55C34.1996 112.065 36.2143 110.05 38.6996 110.05H92.6996C95.1849 110.05 97.1996 112.065 97.1996 114.55C97.1996 117.035 95.1849 119.05 92.6996 119.05H38.6996C36.2143 119.05 34.1996 117.035 34.1996 114.55Z" fill="#762344"/>
</svg>
