<svg width="150" height="151" viewBox="0 0 150 151" fill="none" xmlns="http://www.w3.org/2000/svg">
<rect y="0.5" width="150" height="150" rx="75" fill="#F2F5FC"/>
<g clip-path="url(#clip0_29518_2388)">
<path d="M125.776 114.766L122.292 104.264C122.292 104.264 126.125 108.092 126.125 111.233L125.437 103.97C125.437 103.97 127.402 106.62 127.206 110.644C127.009 114.668 125.776 114.766 125.776 114.766Z" fill="#E6E6E6"/>
<path d="M50.9486 105.204L47.5479 94.9544C47.5479 94.9544 51.2884 98.6901 51.2884 101.755L50.617 94.667C50.617 94.667 52.5352 97.2533 52.3434 101.181C52.1516 105.108 50.9486 105.204 50.9486 105.204Z" fill="#E6E6E6"/>
<path d="M104.027 109.934C104.033 116.676 90.6436 114.602 74.2517 114.616C57.8598 114.63 44.6728 116.727 44.667 109.985C44.6612 103.242 58.0458 101.764 74.4377 101.75C90.8296 101.736 104.022 103.191 104.027 109.934Z" fill="#E6E6E6"/>
<path d="M136.5 114.612H14.5V114.921H136.5V114.612Z" fill="#3F3D56"/>
<path d="M92.5389 100.828H90.3958L89.376 92.5726H92.5389V100.828Z" fill="#A0616A"/>
<path d="M88.6279 100.217H92.9989V102.815H86.2637V102.578C86.2637 101.952 86.5128 101.351 86.9561 100.908C87.3995 100.465 88.0008 100.217 88.6279 100.217Z" fill="#2F2E41"/>
<path d="M108.291 113.013H106.148L105.128 104.757H108.291V113.013Z" fill="#A0616A"/>
<path d="M104.38 112.401H108.751V115H102.016V114.762C102.016 114.136 102.265 113.535 102.708 113.093C103.151 112.65 103.753 112.401 104.38 112.401Z" fill="#2F2E41"/>
<path d="M118.176 88.4873C118.324 88.3078 118.431 88.0981 118.49 87.8729C118.548 87.6476 118.556 87.4124 118.513 87.1837C118.471 86.9551 118.378 86.7385 118.243 86.5493C118.107 86.3601 117.932 86.2029 117.729 86.0888L112.752 65.8389L109.569 67.2064L115.489 86.7863C115.32 87.1395 115.286 87.5424 115.394 87.9189C115.503 88.2953 115.745 88.619 116.076 88.8287C116.408 89.0383 116.804 89.1194 117.191 89.0565C117.578 88.9935 117.929 88.791 118.176 88.4873Z" fill="#A0616A"/>
<path d="M114.294 47.5619C114.116 47.3765 113.9 47.2322 113.66 47.1392C113.421 47.0462 113.164 47.0068 112.907 47.0237C112.651 47.0407 112.401 47.1136 112.176 47.2373C111.951 47.361 111.756 47.5325 111.604 47.7397L103.9 48.623L105.072 51.5907L112.078 50.2811C112.444 50.5124 112.882 50.6018 113.309 50.5323C113.736 50.4628 114.122 50.2394 114.395 49.9042C114.668 49.569 114.809 49.1454 114.79 48.7137C114.771 48.2821 114.595 47.8722 114.294 47.5619Z" fill="#A0616A"/>
<path d="M101.599 86.3872L104.96 111.585L109.144 110.725C109.144 110.725 108.529 92.3738 110.621 90.1615C112.713 87.9492 107.93 84.0737 107.93 84.0737L101.599 86.3872Z" fill="#2F2E41"/>
<path d="M102.988 79.4467L101.444 81.7603C101.444 81.7603 89.5527 76.8249 89.5527 84.6907C89.5527 92.5565 88.8723 97.8946 88.6262 98.2633C88.3801 98.632 91.4735 99.5888 92.9502 99.343C92.9502 99.343 94.772 86.662 94.649 85.9246C94.649 85.9246 106.314 91.6364 108.529 91.1448C110.744 90.6532 111.267 88.9129 111.636 87.9296C112.005 86.9464 111.482 79.1383 111.482 79.1383L104.099 76.8879L102.988 79.4467Z" fill="#2F2E41"/>
<path d="M103.197 65.5563L102.757 65.0287C102.757 65.0287 97.8266 53.9504 99.7634 50.961C101.7 47.9716 110.152 47.532 110.416 47.7078C110.68 47.8837 109.785 50.1667 110.401 51.2218C110.401 51.2218 103.854 52.6394 103.414 52.8153C102.974 52.9911 106.806 59.4896 106.806 59.4896L106.366 63.4461L103.197 65.5563Z" fill="#CCCCCC"/>
<path d="M111.825 60.105C111.825 60.105 107.247 60.6326 107.071 60.6326C106.895 60.6326 106.807 59.4896 106.807 59.4896L102.757 65.0287C102.757 65.0287 100.762 81.0986 101.29 80.8348C101.818 80.571 111.561 82.0859 111.649 81.3825C111.737 80.6791 111.561 77.1622 111.825 76.9863C112.089 76.8105 116.403 65.908 116.403 65.908C116.403 65.908 115.962 63.622 114.466 62.8307C112.969 62.0393 111.825 60.105 111.825 60.105Z" fill="#CCCCCC"/>
<path d="M114.994 64.4133L116.402 65.908C116.402 65.908 118.495 83.0835 117.351 83.6111C116.206 84.1386 113.953 84.0738 113.953 84.0738L111.736 75.9313L114.994 64.4133Z" fill="#CCCCCC"/>
<path d="M107.425 59.0174C109.663 59.0174 111.477 57.2055 111.477 54.9704C111.477 52.7354 109.663 50.9235 107.425 50.9235C105.187 50.9235 103.373 52.7354 103.373 54.9704C103.373 57.2055 105.187 59.0174 107.425 59.0174Z" fill="#A0616A"/>
<path d="M106.475 55.6019C106.42 54.7622 105.359 54.7334 104.517 54.7255C103.674 54.7175 102.667 54.7476 102.19 54.0537C101.875 53.5952 101.935 52.9586 102.196 52.467C102.456 51.9754 102.884 51.5973 103.305 51.2335C104.393 50.2944 105.513 49.3628 106.819 48.7617C108.124 48.1606 109.654 47.9177 111.008 48.4002C112.672 48.993 114.92 52.0441 115.114 53.7971C115.308 55.5502 114.607 57.3372 113.424 58.6472C112.242 59.9571 109.535 59.4286 107.832 59.8946C108.868 58.431 108.185 55.7715 106.526 55.0881L106.475 55.6019Z" fill="#2F2E41"/>
<path d="M70.3613 107.949C75.7336 107.949 80.0887 103.6 80.0887 98.2342C80.0887 92.8687 75.7336 88.5191 70.3613 88.5191C64.9889 88.5191 60.6338 92.8687 60.6338 98.2342C60.6338 103.6 64.9889 107.949 70.3613 107.949Z" fill="#EAC102"/>
<path d="M63.8646 87.8288C62.5164 87.8289 61.1971 87.4387 60.0664 86.7055C58.9357 85.9722 58.042 84.9274 57.4935 83.6974L42.0578 48.9806C41.5465 47.8306 41.2761 46.5883 41.2632 45.3301C41.2503 44.0719 41.4951 42.8243 41.9828 41.6641C42.4704 40.5039 43.1904 39.4555 44.0986 38.5834C45.0068 37.7113 46.084 37.034 47.264 36.593C48.4439 36.152 49.7018 35.9566 50.9601 36.019C52.2184 36.0813 53.4507 36.4 54.5812 36.9555C55.7116 37.5109 56.7164 38.2914 57.5338 39.249C58.3511 40.2066 58.9637 41.321 59.334 42.5237L70.5112 78.8323C70.8312 79.8716 70.9027 80.9713 70.72 82.0432C70.5372 83.1151 70.1053 84.1292 69.4589 85.0041C68.8125 85.879 67.9697 86.5903 66.9981 87.0809C66.0265 87.5714 64.9532 87.8276 63.8646 87.8288Z" fill="#EAC102"/>
</g>
<defs>
<clipPath id="clip0_29518_2388">
<rect width="122" height="79" fill="white" transform="translate(14.5 36)"/>
</clipPath>
</defs>
</svg>
