<svg width="150" height="150" viewBox="0 0 150 150" fill="none" xmlns="http://www.w3.org/2000/svg">
<rect width="150" height="150" rx="75" fill="#F2F5FC"/>
<g clip-path="url(#clip0_31410_5111)">
<path d="M76.4902 123.292C80.6709 123.292 84.06 119.902 84.06 115.719C84.06 111.537 80.6709 108.146 76.4902 108.146C72.3095 108.146 68.9204 111.537 68.9204 115.719C68.9204 119.902 72.3095 123.292 76.4902 123.292Z" fill="#0529D8"/>
<path d="M121.712 122.867C125.947 121.594 130.45 120.268 133.808 117.243C136.809 114.54 138.835 110.412 137.592 106.359C136.351 102.313 132.635 99.6159 128.798 98.2743C126.621 97.5134 124.345 97.0912 122.069 96.7596C119.595 96.3991 117.109 96.1037 114.626 95.8195C104.568 94.6687 94.4725 93.9656 84.3392 93.7104C79.3391 93.5844 74.34 93.5875 69.3392 93.6601C64.8731 93.7249 60.1695 93.7233 56.0264 91.8243C52.8046 90.3476 49.8804 87.6609 48.9827 84.1304C47.9464 80.055 49.8578 75.9047 52.5997 72.9531C54.045 71.3973 55.7341 70.0879 57.4767 68.8838C59.367 67.5776 61.3233 66.3639 63.322 65.2309C67.2584 63.0006 71.3739 61.1024 75.6256 59.5562C77.723 58.7932 79.8516 58.135 81.9986 57.5277C83.8116 57.0149 85.6302 56.5014 87.3824 55.8028C90.7696 54.4522 93.9913 52.1644 94.8525 48.4138C95.6688 44.8591 94.2925 41.0002 91.8797 38.3595C89.0883 35.3044 84.8794 33.9651 80.8443 33.7485C76.3142 33.5052 71.8885 34.6395 67.6306 36.079C63.0893 37.6144 58.6459 39.3798 54.0086 40.6234C49.4101 41.8554 44.7227 42.7271 39.9888 43.2306C37.6714 43.4775 35.284 43.7563 32.9528 43.5673C30.9991 43.4089 29.0553 42.834 27.6155 41.4468C26.3808 40.2574 25.6454 38.6227 25.8982 36.8976C25.9442 36.5843 26.4199 36.7175 26.3743 37.0289C26.0665 39.1288 27.4933 41.0639 29.2515 42.0551C31.2835 43.2006 33.7562 43.2022 36.0185 43.0712C40.9238 42.7748 45.796 42.0702 50.5845 40.9646C55.2896 39.8894 59.8268 38.3525 64.3588 36.7106C68.663 35.1513 73.0635 33.6294 77.6619 33.2916C81.6518 32.9986 85.849 33.5801 89.3249 35.6662C92.3798 37.4995 94.6262 40.557 95.342 44.0655C96.0415 47.4939 95.0727 50.9447 92.4787 53.3371C89.7928 55.8143 86.1101 56.8733 82.678 57.8487C78.325 59.0858 74.0654 60.5319 69.9423 62.4096C65.763 64.3074 61.7549 66.5618 57.9623 69.1477C54.3014 71.6505 50.6886 74.7997 49.5308 79.2646C48.9915 81.3445 49.091 83.5504 49.9935 85.5149C50.7959 87.2616 52.1174 88.7309 53.6569 89.8643C57.33 92.5683 61.9594 93.1234 66.3962 93.1787C71.3793 93.2407 76.3626 93.0725 81.3473 93.1543C91.506 93.3211 101.644 93.9397 111.761 95.0102C114.296 95.2786 116.828 95.5754 119.357 95.9004C121.631 96.1927 123.913 96.4833 126.15 97.0025C130.126 97.9258 133.995 99.7011 136.466 103.074C137.563 104.536 138.243 106.268 138.432 108.086C138.605 109.984 138.141 111.884 137.284 113.572C135.386 117.308 131.831 119.684 128.056 121.245C126.034 122.081 123.937 122.714 121.844 123.343C121.539 123.435 121.408 122.958 121.712 122.867Z" fill="#F2F2F2"/>
<path d="M26.217 40.8931C28.3982 40.8931 30.1665 39.1241 30.1665 36.9419C30.1665 34.7597 28.3982 32.9907 26.217 32.9907C24.0358 32.9907 22.2676 34.7597 22.2676 36.9419C22.2676 39.1241 24.0358 40.8931 26.217 40.8931Z" fill="#F2F2F2"/>
<path d="M53.6164 48.3841C55.7977 48.3841 57.5659 46.6151 57.5659 44.4329C57.5659 42.2507 55.7977 40.4817 53.6164 40.4817C51.4352 40.4817 49.667 42.2507 49.667 44.4329C49.667 46.6151 51.4352 48.3841 53.6164 48.3841Z" fill="#F2F2F2"/>
<path d="M76.8191 33.4024C79.0003 33.4024 80.7685 31.6334 80.7685 29.4512C80.7685 27.269 79.0003 25.5 76.8191 25.5C74.6379 25.5 72.8696 27.269 72.8696 29.4512C72.8696 31.6334 74.6379 33.4024 76.8191 33.4024Z" fill="#F2F2F2"/>
<path d="M91.3005 50.1951C93.4817 50.1951 95.25 48.4261 95.25 46.2439C95.25 44.0617 93.4817 42.2927 91.3005 42.2927C89.1193 42.2927 87.3511 44.0617 87.3511 46.2439C87.3511 48.4261 89.1193 50.1951 91.3005 50.1951Z" fill="#F2F2F2"/>
<path d="M71.718 69.6219C73.8992 69.6219 75.6674 67.8529 75.6674 65.6707C75.6674 63.4885 73.8992 61.7195 71.718 61.7195C69.5368 61.7195 67.7686 63.4885 67.7686 65.6707C67.7686 67.8529 69.5368 69.6219 71.718 69.6219Z" fill="#F2F2F2"/>
<path d="M46.8694 79.0059C49.0506 79.0059 50.8188 77.2369 50.8188 75.0547C50.8188 72.8725 49.0506 71.1035 46.8694 71.1035C44.6881 71.1035 42.9199 72.8725 42.9199 75.0547C42.9199 77.2369 44.6881 79.0059 46.8694 79.0059Z" fill="#F2F2F2"/>
<path d="M73.199 93.6583C75.3802 93.6583 77.1484 91.8893 77.1484 89.7071C77.1484 87.5249 75.3802 85.7559 73.199 85.7559C71.0177 85.7559 69.2495 87.5249 69.2495 89.7071C69.2495 91.8893 71.0177 93.6583 73.199 93.6583Z" fill="#F2F2F2"/>
<path d="M101.503 101.89C103.684 101.89 105.453 100.121 105.453 97.9388C105.453 95.7566 103.684 93.9875 101.503 93.9875C99.3219 93.9875 97.5537 95.7566 97.5537 97.9388C97.5537 100.121 99.3219 101.89 101.503 101.89Z" fill="#F2F2F2"/>
<path d="M134.58 100.079C136.761 100.079 138.529 98.3099 138.529 96.1277C138.529 93.9455 136.761 92.1765 134.58 92.1765C132.399 92.1765 130.63 93.9455 130.63 96.1277C130.63 98.3099 132.399 100.079 134.58 100.079Z" fill="#F2F2F2"/>
<path d="M75.6792 36.6956C63.8487 36.7792 54.1619 46.3975 53.9939 58.2324C53.9923 58.3417 53.9916 59.11 53.9917 60.1149C53.9918 61.5882 54.5768 63.0013 55.6182 64.0431C56.6595 65.085 58.0719 65.6704 59.5446 65.6706C60.2747 65.6704 60.9975 65.5263 61.6719 65.2466C62.3463 64.9668 62.959 64.5569 63.4749 64.0401C63.9908 63.5234 64.4 62.91 64.6789 62.235C64.9578 61.5601 65.101 60.8367 65.1004 60.1063C65.0998 59.4228 65.0995 58.9496 65.0995 58.9206C65.0991 57.0915 65.5746 55.2939 66.4793 53.7044C67.384 52.115 68.6867 50.7886 70.2593 49.8556C71.8318 48.9226 73.62 48.4152 75.448 48.3834C77.276 48.3515 79.0807 48.7963 80.6848 49.6739C82.2889 50.5516 83.6369 51.8318 84.5964 53.3888C85.5559 54.9457 86.0937 56.7257 86.157 58.5537C86.2203 60.3817 85.8068 62.1947 84.9573 63.8143C84.1078 65.4339 82.8515 66.8044 81.312 67.791L81.3139 67.7933C81.3139 67.7933 73.4104 72.8837 71.0008 79.8668L71.0028 79.8673C70.5791 81.2978 70.3644 82.7821 70.3654 84.2742C70.3654 84.8875 70.4015 90.2539 70.4711 94.6095C70.4955 96.1123 71.1094 97.5454 72.1805 98.5994C73.2515 99.6534 74.6938 100.244 76.1962 100.244C76.9511 100.244 77.6986 100.094 78.3956 99.8041C79.0925 99.514 79.7253 99.0888 80.2574 98.5532C80.7896 98.0175 81.2106 97.3818 81.4962 96.6827C81.7819 95.9836 81.9266 95.2349 81.9219 94.4797C81.8977 90.4908 81.8846 85.846 81.8846 85.5089C81.8846 81.2211 86.0192 76.9488 89.4155 74.1628C93.3264 70.9546 96.1407 66.5826 97.2711 61.6508C97.5212 60.6354 97.6592 59.5957 97.6824 58.5502C97.6824 55.6668 97.1121 52.812 96.0044 50.1501C94.8967 47.4883 93.2734 45.072 91.2281 43.0406C89.1829 41.0091 86.756 39.4026 84.0874 38.3137C81.4188 37.2247 78.5612 36.6748 75.6792 36.6956Z" fill="#0529D8"/>
<path d="M144.304 123.5H5.69586C5.64399 123.5 5.5943 123.479 5.55768 123.442C5.52106 123.406 5.50049 123.356 5.50049 123.304C5.50049 123.252 5.52106 123.202 5.55768 123.166C5.5943 123.129 5.64399 123.108 5.69586 123.108H144.304C144.356 123.108 144.406 123.129 144.443 123.165C144.479 123.202 144.5 123.252 144.5 123.304C144.5 123.356 144.479 123.406 144.443 123.443C144.406 123.479 144.356 123.5 144.304 123.5Z" fill="#3F3D56"/>
<path d="M108.918 70.4442C111.644 70.4442 113.855 68.2329 113.855 65.5052C113.855 62.7774 111.644 60.5662 108.918 60.5662C106.191 60.5662 103.981 62.7774 103.981 65.5052C103.981 68.2329 106.191 70.4442 108.918 70.4442Z" fill="#2F2E41"/>
<path d="M99.7951 121.338H97.7778L96.8179 113.553H99.7956L99.7951 121.338Z" fill="#A0616A"/>
<path d="M96.3365 120.761H100.227V123.212H93.8867C93.8867 122.89 93.9501 122.572 94.0732 122.274C94.1963 121.977 94.3768 121.707 94.6042 121.479C94.8317 121.251 95.1018 121.071 95.399 120.948C95.6962 120.825 96.0148 120.761 96.3365 120.761Z" fill="#2F2E41"/>
<path d="M115.428 121.338H113.411L112.451 113.553H115.429L115.428 121.338Z" fill="#A0616A"/>
<path d="M111.97 120.761H115.861V123.212H109.52C109.52 122.89 109.583 122.572 109.706 122.274C109.83 121.977 110.01 121.707 110.238 121.479C110.465 121.251 110.735 121.071 111.032 120.948C111.33 120.825 111.648 120.761 111.97 120.761Z" fill="#2F2E41"/>
<path d="M108.167 70.4731C110.399 70.4731 112.209 68.6628 112.209 66.4296C112.209 64.1964 110.399 62.386 108.167 62.386C105.935 62.386 104.125 64.1964 104.125 66.4296C104.125 68.6628 105.935 70.4731 108.167 70.4731Z" fill="#A0616A"/>
<path d="M110.576 83.5179L112.385 79.3609C112.824 78.3857 112.95 77.2982 112.745 76.2484C112.54 75.1986 112.015 74.2383 111.241 73.5C111.082 73.3428 110.914 73.196 110.736 73.0604C109.844 72.362 108.744 71.9814 107.611 71.9788C106.849 71.9817 106.097 72.1491 105.406 72.4694C105.347 72.4957 105.289 72.5237 105.23 72.5517C105.116 72.606 105.004 72.6653 104.896 72.7262C104.187 73.1331 103.584 73.701 103.136 74.3839C102.687 75.0668 102.405 75.8456 102.312 76.6576L101.514 83.3484C101.313 83.8735 94.1516 102.839 96.6563 117.319C96.6829 117.473 96.7583 117.616 96.8714 117.724C96.9845 117.833 97.1294 117.903 97.2849 117.923L99.8241 118.269C100.009 118.294 100.198 118.248 100.351 118.14C100.504 118.033 100.61 117.871 100.648 117.688L104.909 97.3702C104.935 97.244 105.004 97.1303 105.102 97.0473C105.201 96.9643 105.325 96.9169 105.454 96.9125C105.582 96.9081 105.709 96.9471 105.813 97.0232C105.917 97.0993 105.993 97.2082 106.028 97.3323L112.048 118.698C112.09 118.854 112.183 118.991 112.311 119.088C112.439 119.186 112.596 119.238 112.757 119.238C112.805 119.238 112.853 119.234 112.9 119.225L116.002 118.628C116.182 118.594 116.343 118.494 116.454 118.348C116.565 118.201 116.616 118.019 116.599 117.836C116.143 112.75 113.721 87.2765 110.576 83.5179Z" fill="#2F2E41"/>
<path d="M92.4599 69.7947C92.4318 70.0351 92.4568 70.2787 92.5331 70.5084C92.6093 70.7381 92.735 70.9483 92.9012 71.1241C93.0674 71.3 93.2701 71.4372 93.4951 71.5262C93.7201 71.6152 93.9618 71.6538 94.2033 71.6392L96.4625 77.0708L98.1715 74.5364L95.7641 69.767C95.7127 69.3627 95.5149 68.9914 95.2081 68.7234C94.9013 68.4553 94.507 68.3091 94.0997 68.3126C93.6924 68.316 93.3005 68.4687 92.9983 68.7419C92.6961 69.0151 92.5045 69.3897 92.4599 69.7947Z" fill="#A0616A"/>
<path d="M107.943 88.9869C108.183 88.9582 108.414 88.8771 108.62 88.7494C108.825 88.6217 109 88.4505 109.133 88.2478C109.265 88.0451 109.351 87.8159 109.385 87.5763C109.419 87.3367 109.4 87.0925 109.33 86.861L114.083 83.3973L111.221 82.3252L107.146 85.7787C106.765 85.9229 106.451 86.2019 106.261 86.5628C106.072 86.9237 106.022 87.3414 106.12 87.7369C106.219 88.1324 106.458 88.478 106.794 88.7084C107.13 88.9388 107.539 89.0379 107.943 88.9869Z" fill="#A0616A"/>
<path d="M100.195 80.6919C100.012 80.6917 99.8305 80.6738 99.6518 80.6383C99.2194 80.556 98.8139 80.3685 98.4711 80.0925C98.1282 79.8164 97.8585 79.4602 97.6857 79.0552L94.5205 75.194C94.4536 75.1124 94.4049 75.0174 94.3776 74.9154C94.3504 74.8134 94.3453 74.7067 94.3626 74.6026C94.3799 74.4985 94.4192 74.3992 94.478 74.3115C94.5368 74.2238 94.6136 74.1497 94.7033 74.0942L96.9552 72.6996C97.0384 72.6481 97.1309 72.6136 97.2274 72.598C97.324 72.5825 97.4226 72.5862 97.5177 72.609C97.6128 72.6319 97.7024 72.6733 97.7814 72.7309C97.8604 72.7886 97.9273 72.8613 97.978 72.9449L100.209 76.6219L104.481 73.4631C104.821 73.2847 105.214 73.2346 105.588 73.3221C105.962 73.4096 106.292 73.6288 106.518 73.9396C106.744 74.2505 106.85 74.6322 106.818 75.0151C106.786 75.398 106.617 75.7565 106.342 76.0251L102.078 79.9165C101.577 80.4134 100.9 80.6921 100.195 80.6919Z" fill="#2F2E41"/>
<path d="M111.738 86.4989C111.732 86.4989 111.727 86.4989 111.721 86.4987C111.617 86.4962 111.515 86.4718 111.421 86.4273C111.327 86.3828 111.244 86.319 111.176 86.2402L109.174 83.9035C109.106 83.8239 109.055 83.7307 109.026 83.6302C108.996 83.5296 108.988 83.4239 109.003 83.3201C109.017 83.2162 109.053 83.1166 109.109 83.0278C109.164 82.939 109.238 82.863 109.325 82.8049L113.074 80.3045L109.678 76.2195C109.48 75.89 109.408 75.5004 109.474 75.1219C109.54 74.7433 109.74 74.4011 110.037 74.1577C110.334 73.9144 110.709 73.7862 111.093 73.7965C111.477 73.8068 111.844 73.9549 112.128 74.2139L116.256 78.2495C116.58 78.5464 116.828 78.9177 116.978 79.3317C117.128 79.7456 117.175 80.1897 117.116 80.6258C117.056 81.062 116.892 81.4772 116.637 81.8359C116.382 82.1945 116.043 82.4858 115.651 82.6848L112.277 86.2662C112.208 86.3396 112.124 86.3981 112.032 86.4381C111.939 86.4781 111.839 86.4988 111.738 86.4989Z" fill="#2F2E41"/>
<path d="M107.14 77.8888C107.107 77.8888 107.075 77.8868 107.043 77.8827C106.904 77.8658 106.772 77.8091 106.664 77.7196C106.556 77.63 106.476 77.5113 106.433 77.3775L104.928 72.7629C104.891 72.6462 104.897 72.5199 104.945 72.4071C104.993 72.2944 105.08 72.203 105.191 72.1497L105.24 72.1266C105.284 72.1056 105.328 72.0848 105.372 72.0648C106.074 71.7393 106.838 71.5695 107.611 71.5671C108.615 71.569 109.596 71.8641 110.435 72.4161C110.547 72.491 110.626 72.607 110.654 72.7393C110.681 72.8715 110.656 73.0093 110.583 73.1231L107.761 77.5464C107.695 77.6515 107.603 77.738 107.494 77.7979C107.386 77.8577 107.264 77.889 107.14 77.8888Z" fill="#E6E6E6"/>
<path d="M112.81 63.3004C113.702 63.3004 114.425 62.5768 114.425 61.6843C114.425 60.7917 113.702 60.0681 112.81 60.0681C111.918 60.0681 111.194 60.7917 111.194 61.6843C111.194 62.5768 111.918 63.3004 112.81 63.3004Z" fill="#2F2E41"/>
<path d="M107.272 59.9077C106.137 59.9077 105.049 60.3587 104.247 61.1614C103.444 61.9642 102.994 63.0529 102.994 64.1882V65.9992H105.22L106.285 64.1882L106.604 65.9992H113.361L111.551 64.1882C111.551 63.0529 111.1 61.9642 110.298 61.1614C109.495 60.3587 108.407 59.9077 107.272 59.9077Z" fill="#2F2E41"/>
<path d="M113.64 60.5772C113.819 60.0184 114.189 59.5404 114.685 59.2274C115.181 58.9144 115.771 58.7863 116.352 58.8657C117.382 59.0379 118.196 59.8658 118.681 60.7905C119.166 61.7151 119.39 62.75 119.716 63.742C120.042 64.734 120.504 65.7314 121.327 66.3735C122.15 67.0157 123.413 67.1898 124.222 66.5293C124.129 67.2177 123.823 67.8597 123.346 68.3643C122.869 68.869 122.245 69.2109 121.564 69.3416C120.882 69.4724 120.176 69.3853 119.546 69.0928C118.917 68.8002 118.395 68.3171 118.055 67.7115C117.628 66.9523 117.518 66.0624 117.391 65.2007C117.265 64.339 117.101 63.4474 116.591 62.741C116.082 62.0346 115.129 61.5733 114.32 61.895L113.64 60.5772Z" fill="#2F2E41"/>
<path d="M61.1126 63.0429C59.6399 63.0427 58.2275 62.4573 57.1862 61.4154C56.1448 60.3736 55.5598 58.9605 55.5597 57.4871C55.5596 56.4823 55.5603 55.714 55.5618 55.6047C55.6086 52.1628 56.4751 48.7816 58.0893 45.7417C55.4372 49.374 53.9789 53.7411 53.9162 58.2388C53.9147 58.3481 53.914 59.1164 53.9141 60.1213C53.9142 61.5947 54.4992 63.0077 55.5406 64.0496C56.5819 65.0914 57.9943 65.6768 59.467 65.677C60.6772 65.6765 61.8542 65.2809 62.8191 64.5502C63.784 63.8195 64.4842 62.7937 64.8132 61.6286C63.7964 62.5408 62.4783 63.0445 61.1126 63.0429Z" fill="#3F3D56"/>
<path d="M76.0558 48.4021C77.7584 48.4835 79.4158 48.977 80.8857 49.8403C82.3557 50.7037 83.5942 51.911 84.495 53.3587C85.3957 54.8064 85.9319 56.4512 86.0573 58.1518C86.1827 59.8525 85.8937 61.5582 85.2151 63.1225C86.1967 61.9692 86.9182 60.6177 87.3304 59.1601C87.7425 57.7025 87.8357 56.1732 87.6035 54.6764C87.3714 53.1795 86.8193 51.7503 85.985 50.4863C85.1507 49.2222 84.0538 48.153 82.769 47.3515C81.4842 46.5501 80.0418 46.0352 78.5401 45.8419C77.0383 45.6487 75.5126 45.7817 74.0669 46.2319C72.6213 46.682 71.2896 47.4388 70.1627 48.4505C69.0359 49.4622 68.1403 50.7051 67.5371 52.0945C68.5796 50.8675 69.8899 49.8965 71.3669 49.2563C72.8439 48.6161 74.4481 48.3239 76.0558 48.4021Z" fill="#3F3D56"/>
<path d="M77.764 97.6158C76.2616 97.6161 74.8193 97.0256 73.7483 95.9715C72.6773 94.9175 72.0633 93.4845 72.0389 91.9816C71.9693 87.626 71.9332 82.2597 71.9332 81.6463C71.9322 80.1543 72.1469 78.67 72.5706 77.2394L72.5686 77.2389C72.8188 76.5209 73.121 75.822 73.4727 75.1479C72.393 76.5875 71.5336 78.1801 70.923 79.8731L70.925 79.8736C70.5013 81.3041 70.2866 82.7884 70.2876 84.2805C70.2876 84.8938 70.3237 90.2602 70.3933 94.6158C70.4177 96.1186 71.0317 97.5516 72.1027 98.6057C73.1737 99.6597 74.616 100.25 76.1184 100.25C77.3571 100.25 78.5624 99.8477 79.5534 99.1042C80.5445 98.3607 81.2678 97.3157 81.615 96.1261C80.5623 97.0864 79.1886 97.6178 77.764 97.6158Z" fill="#3F3D56"/>
<path d="M26.3237 121.413L28.3411 121.413L29.301 113.628L26.3232 113.628L26.3237 121.413Z" fill="#FFB8B8"/>
<path d="M32.2319 123.287L25.8913 123.287L25.8912 120.836L29.782 120.836C30.4318 120.836 31.0549 121.094 31.5143 121.554C31.9738 122.013 32.2319 122.637 32.2319 123.287Z" fill="#2F2E41"/>
<path d="M19.083 121.413L21.1004 121.413L22.0602 113.628L19.0825 113.628L19.083 121.413Z" fill="#FFB8B8"/>
<path d="M24.9912 123.287L18.6506 123.287L18.6505 120.836L22.5413 120.836C23.191 120.836 23.8142 121.094 24.2736 121.554C24.7331 122.013 24.9912 122.637 24.9912 123.287Z" fill="#2F2E41"/>
<path d="M20.8458 119.019L18.8752 118.915C18.7736 118.91 18.674 118.884 18.5823 118.84C18.4906 118.796 18.4086 118.734 18.3409 118.658C18.2733 118.582 18.2214 118.493 18.1883 118.397C18.1552 118.301 18.1415 118.199 18.1481 118.097L20.5034 92.0083L31.3497 94.9364L32.3947 94.6512L29.1268 117.747C29.099 117.921 29.0127 118.08 28.8823 118.198C28.7519 118.316 28.5852 118.386 28.4096 118.396L26.2853 118.495C26.1791 118.501 26.0728 118.485 25.9732 118.448C25.8735 118.41 25.7827 118.353 25.7065 118.279C25.6302 118.204 25.5701 118.115 25.5301 118.017C25.49 117.918 25.4709 117.812 25.4738 117.706L25.8587 103.844C25.8605 103.78 25.8383 103.718 25.7963 103.669C25.7544 103.621 25.6958 103.59 25.6322 103.582C25.5685 103.575 25.5043 103.591 25.4524 103.629C25.4004 103.666 25.3644 103.722 25.3513 103.785L21.6394 118.406C21.6043 118.58 21.5102 118.736 21.3731 118.848C21.236 118.959 21.0644 119.02 20.8875 119.02C20.8737 119.02 20.8598 119.019 20.8458 119.019Z" fill="#2F2E41"/>
<path d="M26.6858 70.6623C28.918 70.6623 30.7276 68.852 30.7276 66.6188C30.7276 64.3856 28.918 62.5752 26.6858 62.5752C24.4536 62.5752 22.644 64.3856 22.644 66.6188C22.644 68.852 24.4536 70.6623 26.6858 70.6623Z" fill="#FFB8B8"/>
<path d="M19.9568 78.4985L20.4012 88.0913L20.5618 91.5812C20.5683 91.7332 20.6198 91.8797 20.7099 92.0022C20.8001 92.1247 20.9246 92.2174 21.0678 92.2687L31.4903 96.0459C31.5745 96.0772 31.6637 96.0929 31.7536 96.0921C31.8562 96.0926 31.9579 96.0724 32.0526 96.0327C32.1473 95.993 32.233 95.9346 32.3047 95.861C32.3763 95.7874 32.4324 95.7002 32.4695 95.6044C32.5067 95.5087 32.5242 95.4064 32.521 95.3038L32.0937 78.0556C32.0657 76.6405 31.545 75.2795 30.6214 74.2073C29.6979 73.1351 28.4294 72.4188 27.0345 72.182C26.9337 72.1666 26.8312 72.1512 26.7286 72.1375C25.8637 72.0301 24.9858 72.1136 24.1566 72.3821C23.3274 72.6507 22.5671 73.0977 21.9292 73.6918C21.2686 74.2996 20.7496 75.0452 20.4088 75.8758C20.068 76.7063 19.9137 77.6017 19.9568 78.4985Z" fill="#CCCCCC"/>
<path d="M36.4692 94.1317C36.2227 94.0552 35.9974 93.9221 35.8115 93.743C35.6255 93.5639 35.484 93.3438 35.3982 93.1003C35.3123 92.8568 35.2846 92.5965 35.3172 92.3404C35.3497 92.0842 35.4417 91.8392 35.5857 91.6249L32.0513 86.923L35.1013 86.7341L37.99 91.2281C38.2993 91.4673 38.5145 91.8078 38.5979 92.1899C38.6813 92.572 38.6275 92.9712 38.4461 93.3177C38.2647 93.6641 37.9671 93.9355 37.6056 94.0843C37.2441 94.2332 36.8418 94.25 36.4692 94.1317Z" fill="#FFB8B8"/>
<path d="M33.984 90.774C33.8904 90.736 33.8052 90.6797 33.7335 90.6086C33.6617 90.5374 33.6047 90.4527 33.5659 90.3594L28.241 77.6671C28.1365 77.4185 28.082 77.1519 28.0806 76.8823C28.0792 76.6127 28.1309 76.3455 28.2327 76.0959C28.3346 75.8463 28.4846 75.6192 28.6742 75.4277C28.8638 75.2361 29.0893 75.0838 29.3378 74.9795C29.5863 74.8751 29.8529 74.8208 30.1223 74.8196C30.3918 74.8184 30.6589 74.8703 30.9083 74.9724C31.1577 75.0745 31.3845 75.2248 31.5758 75.4146C31.7672 75.6045 31.9192 75.8302 32.0233 76.0788L37.3482 88.7713C37.4269 88.9595 37.4278 89.1712 37.3506 89.3601C37.2735 89.5489 37.1246 89.6994 36.9367 89.7786L34.5727 90.7712C34.4797 90.8106 34.3797 90.8311 34.2787 90.8316C34.1776 90.8321 34.0775 90.8125 33.984 90.774Z" fill="#CCCCCC"/>
<path d="M25.3862 90.3263L30.5006 80.5292C30.5992 80.3407 30.7685 80.1992 30.9714 80.1355C31.1742 80.0718 31.394 80.0912 31.5826 80.1895L39.0061 84.0682C39.1945 84.1669 39.336 84.3363 39.3996 84.5392C39.4633 84.7422 39.4439 84.9621 39.3457 85.1507L34.2313 94.9478C34.1327 95.1363 33.9633 95.2778 33.7605 95.3415C33.5577 95.4052 33.3379 95.3858 33.1493 95.2876L25.7258 91.4088C25.5374 91.3101 25.3959 91.1407 25.3322 90.9378C25.2686 90.7349 25.288 90.5149 25.3862 90.3263Z" fill="#3F3D56"/>
<path d="M28.8162 85.8503C28.7252 85.6086 28.5791 85.3915 28.3894 85.2164C28.1998 85.0413 27.9718 84.9129 27.7237 84.8416C27.4757 84.7702 27.2144 84.7579 26.9607 84.8055C26.707 84.8532 26.468 84.9595 26.2627 85.116L21.3623 81.8638L21.354 84.921L26.0087 87.5406C26.2657 87.8353 26.6181 88.0301 27.0043 88.0909C27.3905 88.1516 27.7857 88.0743 28.1206 87.8727C28.4556 87.671 28.7088 87.3578 28.836 86.988C28.9632 86.6182 28.9562 86.2154 28.8162 85.8503Z" fill="#FFB8B8"/>
<path d="M22.6206 86.5379L18.6158 83.3641C18.1825 83.2186 17.7911 82.97 17.475 82.6398C17.1589 82.3096 16.9276 81.9075 16.801 81.4682C16.6744 81.0289 16.6562 80.5654 16.7481 80.1175C16.8399 79.6696 17.0391 79.2507 17.3284 78.8967L20.9647 74.129C21.2174 73.8201 21.5727 73.6125 21.9658 73.5441C22.359 73.4757 22.7635 73.5512 23.1056 73.7566C23.4477 73.9621 23.7044 74.2839 23.8289 74.6632C23.9534 75.0424 23.9373 75.4538 23.7835 75.8222L20.9064 80.5307L25.1346 82.5371C25.2329 82.5837 25.3202 82.6507 25.3907 82.7336C25.4613 82.8165 25.5134 82.9135 25.5437 83.018C25.574 83.1226 25.5818 83.2324 25.5665 83.3402C25.5513 83.448 25.5133 83.5513 25.4552 83.6433L23.7484 86.3456C23.6907 86.4368 23.6145 86.5149 23.5247 86.5748C23.435 86.6347 23.3336 86.675 23.2273 86.6932C23.2231 86.6939 23.2188 86.6946 23.2146 86.6952C23.1101 86.711 23.0035 86.7052 22.9013 86.6781C22.7991 86.6511 22.7036 86.6033 22.6206 86.5379Z" fill="#CCCCCC"/>
<path d="M23.6316 69.3264C23.6143 69.2756 23.6088 69.2216 23.6155 69.1684C23.6223 69.1151 23.6412 69.0642 23.6706 69.0194C23.7001 68.9746 23.7395 68.9371 23.7857 68.9099C23.8319 68.8827 23.8837 68.8664 23.9371 68.8623C24.0466 68.8682 24.1537 68.8963 24.252 68.9448C24.3503 68.9934 24.4378 69.0613 24.5091 69.1446C24.6554 69.3133 24.8257 69.4596 25.0145 69.5788C25.21 69.6774 25.4752 69.6633 25.5867 69.4753C25.6913 69.2988 25.6196 69.0624 25.5563 68.8574C25.395 68.3357 25.3048 67.7947 25.288 67.2489C25.2698 66.6397 25.3557 66.004 25.6928 65.5288C26.1279 64.9156 26.9059 64.6828 27.6421 64.6997C28.3784 64.7165 29.1027 64.9439 29.8319 65.0877C30.0837 65.1373 30.3796 65.1626 30.548 64.9674C30.7271 64.7599 30.6613 64.4239 30.5852 64.1436C30.3875 63.4164 30.1779 62.6645 29.7187 62.0771C29.2222 61.4668 28.513 61.0674 27.734 60.9592C26.986 60.8665 26.2268 60.9528 25.5186 61.2109C24.3648 61.5747 23.3496 62.2822 22.6087 63.2389C21.8449 64.2563 21.5149 65.5349 21.6908 66.795C21.8626 67.8926 22.4439 68.8841 23.3176 69.5699L23.6316 69.3264Z" fill="#2F2E41"/>
<path d="M74.8221 121.445C73.7468 120.977 72.795 120.265 72.0419 119.365C71.2888 118.465 70.755 117.403 70.4826 116.262C70.2102 115.12 70.2067 113.931 70.4723 112.788C70.7379 111.645 71.2653 110.58 72.013 109.676C71.1461 110.309 70.4237 111.12 69.8938 112.053C69.3639 112.987 69.0387 114.023 68.9396 115.093C68.8405 116.162 68.9698 117.24 69.319 118.256C69.6683 119.271 70.2294 120.201 70.9652 120.982C71.7009 121.764 72.5945 122.381 73.5866 122.791C74.5787 123.201 75.6466 123.395 76.7195 123.361C77.7923 123.326 78.8456 123.064 79.8093 122.591C80.7731 122.118 81.6253 121.446 82.3094 120.618C81.2424 121.398 79.9897 121.885 78.676 122.03C77.3624 122.175 76.0336 121.974 74.8221 121.445Z" fill="#3F3D56"/>
</g>
<defs>
<clipPath id="clip0_31410_5111">
<rect width="139" height="98" fill="white" transform="translate(5.5 25.5)"/>
</clipPath>
</defs>
</svg>
