<svg width="150" height="150" viewBox="0 0 150 150" fill="none" xmlns="http://www.w3.org/2000/svg">
<g clip-path="url(#clip0_38232_2933)">
<path d="M84.9829 130.034C120.891 130.034 150 100.925 150 65.0171C150 29.1091 120.891 0 84.9829 0C49.0749 0 19.9658 29.1091 19.9658 65.0171C19.9658 100.925 49.0749 130.034 84.9829 130.034Z" fill="#F2F5FC"/>
<path d="M86.9323 29.9121H54.0347C51.5637 29.9121 49.5605 31.694 49.5605 33.8921V33.8921C49.5605 36.0901 51.5637 37.872 54.0347 37.872H86.9323C89.4033 37.872 91.4064 36.0901 91.4064 33.8921C91.4064 31.694 89.4033 29.9121 86.9323 29.9121Z" fill="white"/>
<path d="M32.7825 45.832H108.184C110.655 45.832 112.658 47.6139 112.658 49.812C112.658 52.0101 110.655 53.792 108.184 53.792H32.7825C30.3115 53.792 28.3083 52.0101 28.3083 49.812C28.3083 47.6139 30.3115 45.832 32.7825 45.832Z" fill="white"/>
<path d="M32.7825 61.7515H108.184C110.655 61.7515 112.658 63.5334 112.658 65.7314C112.658 67.9295 110.655 69.7114 108.184 69.7114H32.7825C30.3115 69.7114 28.3083 67.9295 28.3083 65.7314C28.3083 63.5334 30.3115 61.7515 32.7825 61.7515Z" fill="white"/>
<path d="M43.8123 137.387L46.5745 137.387L47.8889 127.908L43.8115 127.908L43.8123 137.387Z" fill="#A0616A"/>
<path d="M43.715 139.95L52.21 139.95V139.855C52.2099 138.23 50.7296 136.913 48.9035 136.913L47.3516 135.866L44.4564 136.914L43.7148 136.914L43.715 139.95Z" fill="#2F2E41"/>
<path d="M21.6738 130.581L23.8834 132.056L31.3294 125.175L28.0679 122.999L21.6738 130.581Z" fill="#A0616A"/>
<path d="M19.8665 132.58L26.6618 137.115L26.7263 137.038C27.8221 135.739 27.5263 133.895 26.0657 132.92L25.5308 131.254L22.5084 130.546L21.9152 130.15L19.8665 132.58Z" fill="#2F2E41"/>
<path d="M30.8563 92.9066C30.8563 92.9066 31.0088 96.607 31.2012 99.5745C31.2327 100.061 29.9509 100.59 29.9841 101.119C30.0061 101.471 30.2471 101.812 30.2695 102.178C30.2931 102.565 29.9604 102.907 29.9841 103.307C30.0073 103.697 30.3868 104.145 30.4096 104.545C30.656 108.847 31.549 113.997 30.6548 115.437C30.2141 116.147 24.5969 125.977 24.5969 125.977C24.5969 125.977 27.7266 130.153 28.6208 128.761C29.8019 126.922 38.9041 118.321 38.9041 116.678C38.9041 115.037 41.0099 102.742 41.0099 102.742L42.4783 110.018L43.1515 111.46L42.94 112.306L43.3751 113.449L43.3986 114.579L43.8222 116.678C43.8222 116.678 42.548 133.032 43.2656 133.487C43.9854 133.945 47.4705 134.766 47.8818 133.945C48.2909 133.124 50.9538 116.877 50.9538 116.877C50.9538 116.877 51.383 109.432 51.848 102.511C51.8748 102.11 52.1922 101.624 52.2168 101.229C52.2459 100.769 52.0447 100.173 52.0715 99.7273C52.1006 99.2162 52.3554 98.8563 52.38 98.3671C52.57 94.5868 51.5034 89.9834 51.1636 89.53C50.1374 88.1618 49.2142 87.0681 49.2142 87.0681C49.2142 87.0681 35.3939 83.0288 31.7008 87.1332L30.8563 92.9066Z" fill="#2F2E41"/>
<path d="M44.6404 54.8546L39.1617 53.8799L36.6049 56.9665C31.8343 61.1392 31.7624 64.822 32.6141 70.7252V79.0102L31.9977 84.5643C31.9977 84.5643 29.8156 88.6243 32.0662 89.5696C34.3168 90.5149 49.0997 90.4343 50.5111 90.057C51.9225 89.6796 50.6991 89.2164 50.3285 87.4577C49.6323 84.1544 50.098 85.7478 50.1459 84.6961C50.8328 69.6087 49.2328 63.4148 49.0703 61.7867L46.284 57.2914L44.6404 54.8546Z" fill="#3F3D56"/>
<path d="M73.5165 67.0196C72.9455 67.982 71.6056 68.3504 70.5237 67.8425C70.4084 67.7883 70.2986 67.7252 70.1958 67.6539L58.364 74.3367L58.3981 70.6982L69.8917 64.765C70.7104 63.9485 72.1182 63.8769 73.0361 64.6052C73.8042 65.2146 74.0028 66.2127 73.5165 67.0196Z" fill="#A0616A"/>
<path d="M40.3149 59.0682L38.9679 58.9413C37.7233 58.8264 36.5021 59.3006 35.7505 60.1906C35.4627 60.5281 35.2559 60.9146 35.1431 61.3262L35.1423 61.3295C34.8044 62.5684 35.3344 63.8668 36.4871 64.6242L41.1395 67.6754C44.4045 71.5998 50.5405 74.2034 57.7382 76.3186L68.926 70.1378L64.9688 65.8745L57.2951 69.5329L45.8884 61.6783L45.8819 61.6736L41.5405 59.1855L40.3149 59.0682Z" fill="#3F3D56"/>
<path d="M42.7893 52.4613C46.3178 52.4613 49.1782 49.9168 49.1782 46.778C49.1782 43.6392 46.3178 41.0947 42.7893 41.0947C39.2608 41.0947 36.4004 43.6392 36.4004 46.778C36.4004 49.9168 39.2608 52.4613 42.7893 52.4613Z" fill="#A0616A"/>
<path d="M42.9368 52.4624C42.8853 52.4639 42.8337 52.4649 42.7821 52.4662C42.76 52.5171 42.7362 52.5676 42.7087 52.6171L42.9368 52.4624Z" fill="#2F2E41"/>
<path d="M44.6902 46.936C44.7002 46.992 44.7155 47.0472 44.736 47.1009C44.7276 47.0446 44.7122 46.9893 44.6902 46.936Z" fill="#2F2E41"/>
<path d="M49.2597 41.3381C48.9967 42.0644 48.762 41.143 47.8969 41.3088C46.8562 41.5081 45.6452 41.4397 44.793 40.8722C43.5232 40.0435 41.8776 39.8203 40.3879 40.275C38.9296 40.7339 36.4866 41.0575 36.1066 42.3913C35.9745 42.8549 35.9221 43.3581 35.6019 43.7423C35.322 44.0783 34.8803 44.2698 34.5108 44.5284C33.2634 45.4014 34.2168 47.8819 34.8072 49.1925C35.3976 50.5032 36.7519 51.4579 38.2409 51.947C39.6816 52.4202 41.2452 52.5036 42.7821 52.4665C43.0494 51.8497 42.9339 51.1375 42.7133 50.4981C42.4746 49.806 42.121 49.1381 42.0213 48.4196C41.9215 47.7011 42.1405 46.8849 42.8178 46.4834C43.4403 46.1144 44.4533 46.3392 44.6902 46.9358C44.552 46.19 45.4014 45.4682 46.2772 45.3412C47.2175 45.205 48.1578 45.5069 49.0954 45.6573C50.033 45.8076 49.7002 42.2962 49.2597 41.3381Z" fill="#2F2E41"/>
<path d="M115.413 49.6657C116.775 35.0265 105.993 22.2839 91.3302 21.2044C76.6675 20.1249 63.6768 31.1173 62.3148 45.7565C60.9528 60.3957 71.7352 73.1383 86.3979 74.2178C101.061 75.2973 114.051 64.3049 115.413 49.6657Z" fill="#0529D8"/>
<path d="M95.718 36.6641L88.8226 43.4851L81.9272 36.6641C80.811 35.5599 79.0012 35.5599 77.885 36.6641C76.7688 37.7682 76.7688 39.5584 77.885 40.6626L84.7804 47.4836L77.885 54.3047C76.7698 55.4099 76.7715 57.2001 77.8888 58.3032C79.0046 59.4049 80.8114 59.4049 81.9272 58.3032L88.8226 51.4822L95.718 58.3032C96.8353 59.4063 98.645 59.4047 99.7602 58.2995C100.874 57.1957 100.874 55.4084 99.7602 54.3047L92.8648 47.4836L99.7602 40.6626C100.876 39.5584 100.876 37.7682 99.7602 36.6641C98.644 35.5599 96.8342 35.5599 95.718 36.6641Z" fill="white"/>
<path d="M66.8091 45.4448C67.1945 46.4776 66.5657 47.5928 65.4047 47.9356C65.2809 47.9722 65.1538 47.9989 65.0247 48.0156L62.2546 60.237L59.3267 57.6961L62.4707 46.2107C62.3751 45.1199 63.2917 44.1667 64.5179 44.0817C65.544 44.0106 66.4912 44.5741 66.8091 45.4448Z" fill="#A0616A"/>
<path d="M37.3736 61.2526L36.338 62.0294C35.3832 62.7488 34.9224 63.861 35.124 64.9595C35.1985 65.378 35.369 65.7783 35.6248 66.1356L35.6269 66.1384C36.398 67.213 37.8181 67.7717 39.2305 67.5561L44.9266 66.6821C50.3704 67.3032 56.7305 65.1669 63.4293 62.0111L66.1608 50.5505L59.9629 50.1392L57.618 57.5977L43.3494 59.4819L43.341 59.4828L38.3171 60.5471L37.3736 61.2526Z" fill="#3F3D56"/>
</g>
<defs>
<clipPath id="clip0_38232_2933">
<rect width="150" height="150" fill="white"/>
</clipPath>
</defs>
</svg>
